<mxfile host="app.diagrams.net" modified="2020-12-27T17:56:38.304Z" agent="5.0 (Windows)" etag="TONctXq9x9R0UyICktYW" version="14.1.1" type="github">
  <diagram id="R2lEEEUBdFMjLlhIrx00" name="Page-1">
    <mxGraphModel dx="881" dy="971" grid="1" gridSize="10" guides="1" tooltips="1" connect="1" arrows="1" fold="1" page="1" pageScale="1" pageWidth="850" pageHeight="1100" math="0" shadow="0" extFonts="Permanent Marker^https://fonts.googleapis.com/css?family=Permanent+Marker">
      <root>
        <mxCell id="0" />
        <mxCell id="1" parent="0" />
        <mxCell id="sjoTBTvW4a24tzpeRHLb-77" style="edgeStyle=orthogonalEdgeStyle;rounded=0;orthogonalLoop=1;jettySize=auto;html=1;exitX=0.5;exitY=1;exitDx=0;exitDy=0;" edge="1" parent="1" source="sjoTBTvW4a24tzpeRHLb-1" target="sjoTBTvW4a24tzpeRHLb-76">
          <mxGeometry relative="1" as="geometry" />
        </mxCell>
        <mxCell id="sjoTBTvW4a24tzpeRHLb-1" value="Supplier" style="whiteSpace=wrap;html=1;align=center;" vertex="1" parent="1">
          <mxGeometry x="30" y="780" width="100" height="40" as="geometry" />
        </mxCell>
        <mxCell id="sjoTBTvW4a24tzpeRHLb-71" style="edgeStyle=orthogonalEdgeStyle;rounded=0;orthogonalLoop=1;jettySize=auto;html=1;exitX=0.5;exitY=1;exitDx=0;exitDy=0;entryX=0;entryY=0.5;entryDx=0;entryDy=0;" edge="1" parent="1" source="sjoTBTvW4a24tzpeRHLb-2" target="sjoTBTvW4a24tzpeRHLb-70">
          <mxGeometry relative="1" as="geometry" />
        </mxCell>
        <mxCell id="sjoTBTvW4a24tzpeRHLb-2" value="Costumer" style="whiteSpace=wrap;html=1;align=center;" vertex="1" parent="1">
          <mxGeometry x="640" y="790" width="100" height="40" as="geometry" />
        </mxCell>
        <mxCell id="sjoTBTvW4a24tzpeRHLb-58" style="edgeStyle=orthogonalEdgeStyle;rounded=0;orthogonalLoop=1;jettySize=auto;html=1;entryX=0.5;entryY=1;entryDx=0;entryDy=0;" edge="1" parent="1" source="sjoTBTvW4a24tzpeRHLb-3" target="sjoTBTvW4a24tzpeRHLb-57">
          <mxGeometry relative="1" as="geometry" />
        </mxCell>
        <mxCell id="sjoTBTvW4a24tzpeRHLb-62" style="edgeStyle=orthogonalEdgeStyle;rounded=0;orthogonalLoop=1;jettySize=auto;html=1;" edge="1" parent="1" source="sjoTBTvW4a24tzpeRHLb-3" target="sjoTBTvW4a24tzpeRHLb-61">
          <mxGeometry relative="1" as="geometry" />
        </mxCell>
        <mxCell id="sjoTBTvW4a24tzpeRHLb-66" style="edgeStyle=orthogonalEdgeStyle;rounded=0;orthogonalLoop=1;jettySize=auto;html=1;" edge="1" parent="1" source="sjoTBTvW4a24tzpeRHLb-3" target="sjoTBTvW4a24tzpeRHLb-65">
          <mxGeometry relative="1" as="geometry" />
        </mxCell>
        <mxCell id="sjoTBTvW4a24tzpeRHLb-3" value="&lt;div&gt;Factory&lt;/div&gt;" style="whiteSpace=wrap;html=1;align=center;" vertex="1" parent="1">
          <mxGeometry x="390" y="700" width="100" height="40" as="geometry" />
        </mxCell>
        <mxCell id="sjoTBTvW4a24tzpeRHLb-33" style="edgeStyle=orthogonalEdgeStyle;rounded=0;orthogonalLoop=1;jettySize=auto;html=1;exitX=0;exitY=0.5;exitDx=0;exitDy=0;" edge="1" parent="1" source="sjoTBTvW4a24tzpeRHLb-5">
          <mxGeometry relative="1" as="geometry">
            <mxPoint x="440" y="205.47058823529414" as="targetPoint" />
          </mxGeometry>
        </mxCell>
        <mxCell id="sjoTBTvW4a24tzpeRHLb-5" value="Frame" style="whiteSpace=wrap;html=1;align=center;" vertex="1" parent="1">
          <mxGeometry x="510" y="185" width="100" height="40" as="geometry" />
        </mxCell>
        <mxCell id="sjoTBTvW4a24tzpeRHLb-29" style="edgeStyle=orthogonalEdgeStyle;rounded=0;orthogonalLoop=1;jettySize=auto;html=1;exitX=0;exitY=0.5;exitDx=0;exitDy=0;" edge="1" parent="1" source="sjoTBTvW4a24tzpeRHLb-6">
          <mxGeometry relative="1" as="geometry">
            <mxPoint x="440" y="274.8823529411766" as="targetPoint" />
          </mxGeometry>
        </mxCell>
        <mxCell id="sjoTBTvW4a24tzpeRHLb-6" value="Tire Set" style="whiteSpace=wrap;html=1;align=center;" vertex="1" parent="1">
          <mxGeometry x="510" y="255" width="100" height="40" as="geometry" />
        </mxCell>
        <mxCell id="sjoTBTvW4a24tzpeRHLb-36" style="edgeStyle=orthogonalEdgeStyle;rounded=0;orthogonalLoop=1;jettySize=auto;html=1;" edge="1" parent="1" source="sjoTBTvW4a24tzpeRHLb-7">
          <mxGeometry relative="1" as="geometry">
            <mxPoint x="440" y="145" as="targetPoint" />
          </mxGeometry>
        </mxCell>
        <mxCell id="sjoTBTvW4a24tzpeRHLb-7" value="Front Suspension" style="whiteSpace=wrap;html=1;align=center;" vertex="1" parent="1">
          <mxGeometry x="280" y="125" width="100" height="40" as="geometry" />
        </mxCell>
        <mxCell id="sjoTBTvW4a24tzpeRHLb-28" style="edgeStyle=orthogonalEdgeStyle;rounded=0;orthogonalLoop=1;jettySize=auto;html=1;exitX=0;exitY=0.5;exitDx=0;exitDy=0;" edge="1" parent="1" source="sjoTBTvW4a24tzpeRHLb-8">
          <mxGeometry relative="1" as="geometry">
            <mxPoint x="440" y="334.8823529411766" as="targetPoint" />
          </mxGeometry>
        </mxCell>
        <mxCell id="sjoTBTvW4a24tzpeRHLb-8" value="Chain" style="whiteSpace=wrap;html=1;align=center;" vertex="1" parent="1">
          <mxGeometry x="510" y="315" width="100" height="40" as="geometry" />
        </mxCell>
        <mxCell id="sjoTBTvW4a24tzpeRHLb-30" style="edgeStyle=orthogonalEdgeStyle;rounded=0;orthogonalLoop=1;jettySize=auto;html=1;exitX=0;exitY=0.5;exitDx=0;exitDy=0;" edge="1" parent="1" source="sjoTBTvW4a24tzpeRHLb-9">
          <mxGeometry relative="1" as="geometry">
            <mxPoint x="440" y="145.47058823529414" as="targetPoint" />
          </mxGeometry>
        </mxCell>
        <mxCell id="sjoTBTvW4a24tzpeRHLb-9" value="Back Suspension" style="whiteSpace=wrap;html=1;align=center;" vertex="1" parent="1">
          <mxGeometry x="510" y="125" width="100" height="40" as="geometry" />
        </mxCell>
        <mxCell id="sjoTBTvW4a24tzpeRHLb-35" style="edgeStyle=orthogonalEdgeStyle;rounded=0;orthogonalLoop=1;jettySize=auto;html=1;exitX=1;exitY=0.5;exitDx=0;exitDy=0;" edge="1" parent="1" source="sjoTBTvW4a24tzpeRHLb-10">
          <mxGeometry relative="1" as="geometry">
            <mxPoint x="440" y="334.8823529411766" as="targetPoint" />
          </mxGeometry>
        </mxCell>
        <mxCell id="sjoTBTvW4a24tzpeRHLb-10" value="Shifting Gear System" style="whiteSpace=wrap;html=1;align=center;" vertex="1" parent="1">
          <mxGeometry x="280" y="315" width="100" height="40" as="geometry" />
        </mxCell>
        <mxCell id="sjoTBTvW4a24tzpeRHLb-38" style="edgeStyle=orthogonalEdgeStyle;rounded=0;orthogonalLoop=1;jettySize=auto;html=1;" edge="1" parent="1" source="sjoTBTvW4a24tzpeRHLb-11">
          <mxGeometry relative="1" as="geometry">
            <mxPoint x="440" y="275" as="targetPoint" />
          </mxGeometry>
        </mxCell>
        <mxCell id="sjoTBTvW4a24tzpeRHLb-11" value="Break System" style="whiteSpace=wrap;html=1;align=center;" vertex="1" parent="1">
          <mxGeometry x="280" y="255" width="100" height="40" as="geometry" />
        </mxCell>
        <mxCell id="sjoTBTvW4a24tzpeRHLb-37" style="edgeStyle=orthogonalEdgeStyle;rounded=0;orthogonalLoop=1;jettySize=auto;html=1;exitX=1;exitY=0.5;exitDx=0;exitDy=0;" edge="1" parent="1" source="sjoTBTvW4a24tzpeRHLb-12">
          <mxGeometry relative="1" as="geometry">
            <mxPoint x="440" y="205.47058823529414" as="targetPoint" />
          </mxGeometry>
        </mxCell>
        <mxCell id="sjoTBTvW4a24tzpeRHLb-12" value="Seat" style="whiteSpace=wrap;html=1;align=center;" vertex="1" parent="1">
          <mxGeometry x="280" y="185" width="100" height="40" as="geometry" />
        </mxCell>
        <mxCell id="sjoTBTvW4a24tzpeRHLb-25" style="edgeStyle=orthogonalEdgeStyle;rounded=0;orthogonalLoop=1;jettySize=auto;html=1;entryX=1;entryY=0.5;entryDx=0;entryDy=0;" edge="1" parent="1" source="sjoTBTvW4a24tzpeRHLb-13" target="sjoTBTvW4a24tzpeRHLb-24">
          <mxGeometry relative="1" as="geometry" />
        </mxCell>
        <mxCell id="sjoTBTvW4a24tzpeRHLb-46" style="edgeStyle=orthogonalEdgeStyle;rounded=0;orthogonalLoop=1;jettySize=auto;html=1;entryX=0;entryY=0.5;entryDx=0;entryDy=0;" edge="1" parent="1" source="sjoTBTvW4a24tzpeRHLb-13" target="sjoTBTvW4a24tzpeRHLb-40">
          <mxGeometry relative="1" as="geometry" />
        </mxCell>
        <mxCell id="sjoTBTvW4a24tzpeRHLb-47" style="edgeStyle=orthogonalEdgeStyle;rounded=0;orthogonalLoop=1;jettySize=auto;html=1;exitX=1;exitY=0.5;exitDx=0;exitDy=0;entryX=0;entryY=0.5;entryDx=0;entryDy=0;" edge="1" parent="1" source="sjoTBTvW4a24tzpeRHLb-13" target="sjoTBTvW4a24tzpeRHLb-43">
          <mxGeometry relative="1" as="geometry" />
        </mxCell>
        <mxCell id="sjoTBTvW4a24tzpeRHLb-52" style="edgeStyle=orthogonalEdgeStyle;rounded=0;orthogonalLoop=1;jettySize=auto;html=1;exitX=1;exitY=0.5;exitDx=0;exitDy=0;entryX=0;entryY=0.5;entryDx=0;entryDy=0;" edge="1" parent="1" source="sjoTBTvW4a24tzpeRHLb-13" target="sjoTBTvW4a24tzpeRHLb-49">
          <mxGeometry relative="1" as="geometry" />
        </mxCell>
        <mxCell id="sjoTBTvW4a24tzpeRHLb-56" style="edgeStyle=orthogonalEdgeStyle;rounded=0;orthogonalLoop=1;jettySize=auto;html=1;exitX=1;exitY=0.5;exitDx=0;exitDy=0;entryX=0;entryY=0.5;entryDx=0;entryDy=0;" edge="1" parent="1" source="sjoTBTvW4a24tzpeRHLb-13" target="sjoTBTvW4a24tzpeRHLb-55">
          <mxGeometry relative="1" as="geometry" />
        </mxCell>
        <mxCell id="sjoTBTvW4a24tzpeRHLb-13" value="Bike_Parts" style="whiteSpace=wrap;html=1;align=center;" vertex="1" parent="1">
          <mxGeometry x="390" y="470" width="100" height="40" as="geometry" />
        </mxCell>
        <mxCell id="sjoTBTvW4a24tzpeRHLb-14" style="edgeStyle=orthogonalEdgeStyle;rounded=0;orthogonalLoop=1;jettySize=auto;html=1;exitX=0.5;exitY=1;exitDx=0;exitDy=0;" edge="1" parent="1" source="sjoTBTvW4a24tzpeRHLb-13" target="sjoTBTvW4a24tzpeRHLb-13">
          <mxGeometry relative="1" as="geometry" />
        </mxCell>
        <mxCell id="sjoTBTvW4a24tzpeRHLb-27" style="edgeStyle=orthogonalEdgeStyle;rounded=0;orthogonalLoop=1;jettySize=auto;html=1;exitX=0;exitY=0.5;exitDx=0;exitDy=0;" edge="1" parent="1" source="sjoTBTvW4a24tzpeRHLb-24">
          <mxGeometry relative="1" as="geometry">
            <mxPoint x="440" y="120" as="targetPoint" />
            <Array as="points">
              <mxPoint x="440" y="180" />
              <mxPoint x="440" y="180" />
            </Array>
          </mxGeometry>
        </mxCell>
        <mxCell id="sjoTBTvW4a24tzpeRHLb-24" value="ISA" style="triangle;whiteSpace=wrap;html=1;rotation=90;" vertex="1" parent="1">
          <mxGeometry x="410" y="360" width="60" height="80" as="geometry" />
        </mxCell>
        <mxCell id="sjoTBTvW4a24tzpeRHLb-40" value="Price" style="ellipse;whiteSpace=wrap;html=1;align=center;" vertex="1" parent="1">
          <mxGeometry x="610" y="510" width="100" height="40" as="geometry" />
        </mxCell>
        <mxCell id="sjoTBTvW4a24tzpeRHLb-43" value="&lt;u&gt;Part_ID&lt;/u&gt;" style="ellipse;whiteSpace=wrap;html=1;align=center;" vertex="1" parent="1">
          <mxGeometry x="610" y="570" width="100" height="40" as="geometry" />
        </mxCell>
        <mxCell id="sjoTBTvW4a24tzpeRHLb-53" style="edgeStyle=orthogonalEdgeStyle;rounded=0;orthogonalLoop=1;jettySize=auto;html=1;entryX=0.5;entryY=1;entryDx=0;entryDy=0;" edge="1" parent="1" source="sjoTBTvW4a24tzpeRHLb-49" target="sjoTBTvW4a24tzpeRHLb-50">
          <mxGeometry relative="1" as="geometry" />
        </mxCell>
        <mxCell id="sjoTBTvW4a24tzpeRHLb-54" style="edgeStyle=orthogonalEdgeStyle;rounded=0;orthogonalLoop=1;jettySize=auto;html=1;exitX=1;exitY=0.5;exitDx=0;exitDy=0;entryX=0.5;entryY=0;entryDx=0;entryDy=0;" edge="1" parent="1" source="sjoTBTvW4a24tzpeRHLb-49" target="sjoTBTvW4a24tzpeRHLb-51">
          <mxGeometry relative="1" as="geometry" />
        </mxCell>
        <mxCell id="sjoTBTvW4a24tzpeRHLb-49" value="Name" style="ellipse;whiteSpace=wrap;html=1;align=center;" vertex="1" parent="1">
          <mxGeometry x="610" y="430" width="100" height="40" as="geometry" />
        </mxCell>
        <mxCell id="sjoTBTvW4a24tzpeRHLb-50" value="Part Name" style="ellipse;whiteSpace=wrap;html=1;align=center;" vertex="1" parent="1">
          <mxGeometry x="720" y="390" width="100" height="40" as="geometry" />
        </mxCell>
        <mxCell id="sjoTBTvW4a24tzpeRHLb-51" value="Company name" style="ellipse;whiteSpace=wrap;html=1;align=center;" vertex="1" parent="1">
          <mxGeometry x="720" y="470" width="100" height="40" as="geometry" />
        </mxCell>
        <mxCell id="sjoTBTvW4a24tzpeRHLb-55" value="Amount_In_Stock" style="ellipse;whiteSpace=wrap;html=1;align=center;" vertex="1" parent="1">
          <mxGeometry x="610" y="620" width="100" height="40" as="geometry" />
        </mxCell>
        <mxCell id="sjoTBTvW4a24tzpeRHLb-59" style="edgeStyle=orthogonalEdgeStyle;rounded=0;orthogonalLoop=1;jettySize=auto;html=1;exitX=0.5;exitY=0;exitDx=0;exitDy=0;entryX=0.5;entryY=1;entryDx=0;entryDy=0;" edge="1" parent="1" source="sjoTBTvW4a24tzpeRHLb-57" target="sjoTBTvW4a24tzpeRHLb-13">
          <mxGeometry relative="1" as="geometry" />
        </mxCell>
        <mxCell id="sjoTBTvW4a24tzpeRHLb-57" value="Stores" style="shape=rhombus;perimeter=rhombusPerimeter;whiteSpace=wrap;html=1;align=center;" vertex="1" parent="1">
          <mxGeometry x="380" y="570" width="120" height="60" as="geometry" />
        </mxCell>
        <mxCell id="sjoTBTvW4a24tzpeRHLb-64" style="edgeStyle=orthogonalEdgeStyle;rounded=0;orthogonalLoop=1;jettySize=auto;html=1;entryX=0.5;entryY=0;entryDx=0;entryDy=0;" edge="1" parent="1" source="sjoTBTvW4a24tzpeRHLb-61" target="sjoTBTvW4a24tzpeRHLb-1">
          <mxGeometry relative="1" as="geometry" />
        </mxCell>
        <mxCell id="sjoTBTvW4a24tzpeRHLb-61" value="Buys From" style="shape=rhombus;perimeter=rhombusPerimeter;whiteSpace=wrap;html=1;align=center;" vertex="1" parent="1">
          <mxGeometry x="20" y="690" width="120" height="60" as="geometry" />
        </mxCell>
        <mxCell id="sjoTBTvW4a24tzpeRHLb-67" style="edgeStyle=orthogonalEdgeStyle;rounded=0;orthogonalLoop=1;jettySize=auto;html=1;entryX=0.5;entryY=0;entryDx=0;entryDy=0;" edge="1" parent="1" source="sjoTBTvW4a24tzpeRHLb-65" target="sjoTBTvW4a24tzpeRHLb-2">
          <mxGeometry relative="1" as="geometry" />
        </mxCell>
        <mxCell id="sjoTBTvW4a24tzpeRHLb-65" value="Sells to" style="shape=rhombus;perimeter=rhombusPerimeter;whiteSpace=wrap;html=1;align=center;" vertex="1" parent="1">
          <mxGeometry x="630" y="690" width="120" height="60" as="geometry" />
        </mxCell>
        <mxCell id="sjoTBTvW4a24tzpeRHLb-74" style="edgeStyle=orthogonalEdgeStyle;rounded=0;orthogonalLoop=1;jettySize=auto;html=1;exitX=0.5;exitY=0;exitDx=0;exitDy=0;entryX=0.5;entryY=0;entryDx=0;entryDy=0;" edge="1" parent="1" source="sjoTBTvW4a24tzpeRHLb-70" target="sjoTBTvW4a24tzpeRHLb-73">
          <mxGeometry relative="1" as="geometry" />
        </mxCell>
        <mxCell id="sjoTBTvW4a24tzpeRHLb-75" style="edgeStyle=orthogonalEdgeStyle;rounded=0;orthogonalLoop=1;jettySize=auto;html=1;exitX=0.5;exitY=1;exitDx=0;exitDy=0;entryX=1;entryY=0.5;entryDx=0;entryDy=0;" edge="1" parent="1" source="sjoTBTvW4a24tzpeRHLb-70" target="sjoTBTvW4a24tzpeRHLb-72">
          <mxGeometry relative="1" as="geometry">
            <mxPoint x="580" y="940" as="targetPoint" />
            <Array as="points">
              <mxPoint x="670" y="910" />
            </Array>
          </mxGeometry>
        </mxCell>
        <mxCell id="sjoTBTvW4a24tzpeRHLb-70" value="ISA" style="triangle;whiteSpace=wrap;html=1;rotation=90;" vertex="1" parent="1">
          <mxGeometry x="660" y="860" width="60" height="80" as="geometry" />
        </mxCell>
        <mxCell id="sjoTBTvW4a24tzpeRHLb-84" style="edgeStyle=orthogonalEdgeStyle;rounded=0;orthogonalLoop=1;jettySize=auto;html=1;" edge="1" parent="1" source="sjoTBTvW4a24tzpeRHLb-72">
          <mxGeometry relative="1" as="geometry">
            <mxPoint x="490" y="1070" as="targetPoint" />
          </mxGeometry>
        </mxCell>
        <mxCell id="sjoTBTvW4a24tzpeRHLb-72" value="Shop" style="whiteSpace=wrap;html=1;align=center;" vertex="1" parent="1">
          <mxGeometry x="440" y="890" width="100" height="40" as="geometry" />
        </mxCell>
        <mxCell id="sjoTBTvW4a24tzpeRHLb-73" value="Independent Person" style="whiteSpace=wrap;html=1;align=center;" vertex="1" parent="1">
          <mxGeometry x="740" y="940" width="100" height="40" as="geometry" />
        </mxCell>
        <mxCell id="sjoTBTvW4a24tzpeRHLb-79" style="edgeStyle=orthogonalEdgeStyle;rounded=0;orthogonalLoop=1;jettySize=auto;html=1;exitX=1;exitY=0.5;exitDx=0;exitDy=0;entryX=0.5;entryY=0;entryDx=0;entryDy=0;" edge="1" parent="1" source="sjoTBTvW4a24tzpeRHLb-76" target="sjoTBTvW4a24tzpeRHLb-78">
          <mxGeometry relative="1" as="geometry" />
        </mxCell>
        <mxCell id="sjoTBTvW4a24tzpeRHLb-76" value="ISA" style="triangle;whiteSpace=wrap;html=1;rotation=90;" vertex="1" parent="1">
          <mxGeometry x="50" y="830" width="60" height="80" as="geometry" />
        </mxCell>
        <mxCell id="sjoTBTvW4a24tzpeRHLb-89" style="edgeStyle=orthogonalEdgeStyle;rounded=0;orthogonalLoop=1;jettySize=auto;html=1;exitX=1;exitY=0.5;exitDx=0;exitDy=0;entryX=0;entryY=0.5;entryDx=0;entryDy=0;" edge="1" parent="1" source="sjoTBTvW4a24tzpeRHLb-78" target="sjoTBTvW4a24tzpeRHLb-88">
          <mxGeometry relative="1" as="geometry" />
        </mxCell>
        <mxCell id="sjoTBTvW4a24tzpeRHLb-91" style="edgeStyle=orthogonalEdgeStyle;rounded=0;orthogonalLoop=1;jettySize=auto;html=1;exitX=1;exitY=0.5;exitDx=0;exitDy=0;entryX=0;entryY=0.5;entryDx=0;entryDy=0;" edge="1" parent="1" source="sjoTBTvW4a24tzpeRHLb-78" target="sjoTBTvW4a24tzpeRHLb-87">
          <mxGeometry relative="1" as="geometry" />
        </mxCell>
        <mxCell id="sjoTBTvW4a24tzpeRHLb-92" style="edgeStyle=orthogonalEdgeStyle;rounded=0;orthogonalLoop=1;jettySize=auto;html=1;exitX=1;exitY=0.5;exitDx=0;exitDy=0;entryX=0;entryY=0.5;entryDx=0;entryDy=0;" edge="1" parent="1" source="sjoTBTvW4a24tzpeRHLb-78" target="sjoTBTvW4a24tzpeRHLb-80">
          <mxGeometry relative="1" as="geometry" />
        </mxCell>
        <mxCell id="sjoTBTvW4a24tzpeRHLb-93" style="edgeStyle=orthogonalEdgeStyle;rounded=0;orthogonalLoop=1;jettySize=auto;html=1;exitX=1;exitY=0.5;exitDx=0;exitDy=0;entryX=0;entryY=0.5;entryDx=0;entryDy=0;" edge="1" parent="1" source="sjoTBTvW4a24tzpeRHLb-78" target="sjoTBTvW4a24tzpeRHLb-81">
          <mxGeometry relative="1" as="geometry" />
        </mxCell>
        <mxCell id="sjoTBTvW4a24tzpeRHLb-78" value="Company" style="whiteSpace=wrap;html=1;align=center;" vertex="1" parent="1">
          <mxGeometry x="30" y="930" width="100" height="40" as="geometry" />
        </mxCell>
        <mxCell id="sjoTBTvW4a24tzpeRHLb-80" value="Name" style="ellipse;whiteSpace=wrap;html=1;align=center;" vertex="1" parent="1">
          <mxGeometry x="180" y="990" width="100" height="40" as="geometry" />
        </mxCell>
        <mxCell id="sjoTBTvW4a24tzpeRHLb-81" value="Location " style="ellipse;whiteSpace=wrap;html=1;align=center;" vertex="1" parent="1">
          <mxGeometry x="180" y="1050" width="100" height="40" as="geometry" />
        </mxCell>
        <mxCell id="sjoTBTvW4a24tzpeRHLb-86" style="edgeStyle=orthogonalEdgeStyle;rounded=0;orthogonalLoop=1;jettySize=auto;html=1;" edge="1" parent="1" source="sjoTBTvW4a24tzpeRHLb-82">
          <mxGeometry relative="1" as="geometry">
            <mxPoint x="490" y="1030" as="targetPoint" />
          </mxGeometry>
        </mxCell>
        <mxCell id="sjoTBTvW4a24tzpeRHLb-82" value="Name" style="ellipse;whiteSpace=wrap;html=1;align=center;" vertex="1" parent="1">
          <mxGeometry x="340" y="1010" width="100" height="40" as="geometry" />
        </mxCell>
        <mxCell id="sjoTBTvW4a24tzpeRHLb-85" style="edgeStyle=orthogonalEdgeStyle;rounded=0;orthogonalLoop=1;jettySize=auto;html=1;exitX=1;exitY=0.5;exitDx=0;exitDy=0;" edge="1" parent="1" source="sjoTBTvW4a24tzpeRHLb-83">
          <mxGeometry relative="1" as="geometry">
            <mxPoint x="490" y="970.1764705882354" as="targetPoint" />
          </mxGeometry>
        </mxCell>
        <mxCell id="sjoTBTvW4a24tzpeRHLb-83" value="Location " style="ellipse;whiteSpace=wrap;html=1;align=center;" vertex="1" parent="1">
          <mxGeometry x="340" y="950" width="100" height="40" as="geometry" />
        </mxCell>
        <mxCell id="sjoTBTvW4a24tzpeRHLb-87" value="Email" style="ellipse;whiteSpace=wrap;html=1;align=center;" vertex="1" parent="1">
          <mxGeometry x="180" y="930" width="100" height="40" as="geometry" />
        </mxCell>
        <mxCell id="sjoTBTvW4a24tzpeRHLb-88" value="Phone" style="ellipse;whiteSpace=wrap;html=1;align=center;" vertex="1" parent="1">
          <mxGeometry x="180" y="860" width="100" height="40" as="geometry" />
        </mxCell>
      </root>
    </mxGraphModel>
  </diagram>
</mxfile>
